<svg id="Layer_1" data-name="Layer 1" xmlns="http://www.w3.org/2000/svg" xmlns:xlink="http://www.w3.org/1999/xlink" viewBox="0 0 326.85 596"><defs><style>.cls-1{fill:url(#Coral_to_pink);}.cls-2{fill:url(#New_Gradient_Swatch);}.cls-3{fill:url(#Coral_to_pink-2);}</style><linearGradient id="Coral_to_pink" x1="281.13" y1="470.02" x2="281.13" y2="470.02" gradientUnits="userSpaceOnUse"><stop offset="0" stop-color="#f48786"/><stop offset="0.19" stop-color="#f38188"/><stop offset="0.43" stop-color="#f2708c"/><stop offset="0.63" stop-color="#f05e91"/><stop offset="1" stop-color="#e83894"/></linearGradient><linearGradient id="New_Gradient_Swatch" x1="146.06" y1="376" x2="467.91" y2="376" gradientUnits="userSpaceOnUse"><stop offset="0" stop-color="#f9f06d"/><stop offset="1" stop-color="#fbac4d"/></linearGradient><linearGradient id="Coral_to_pink-2" x1="151.06" y1="376" x2="472.91" y2="376" xlink:href="#Coral_to_pink"/></defs><title>Final Logo!</title><path class="cls-1" d="M281.13,470" transform="translate(-146.06 -78)"/><path class="cls-2" d="M219.16,585.7c-.32.57-.62,1.06-.8,1.35a1.14,1.14,0,0,1-.46.41c-9.93,4.88-13.25,12.61-10,23.8,2.94,10.16,17.05,28.47,24,35.86,9.71,10.32,12.11,12.5,24.51,19.45,14.12,7.9,32.5,8.33,49.15,6.6s42.21-15.11,47.66-19.45,12-7.2,18-10.77a187.28,187.28,0,0,0,23-15.57c4.32-3.53,7.44-7.94,7.85-13.87.59-8.36-4-13.37-13.53-15.53-6.22-1.41-12.67-2.3-18.49-5-2.42-1.12-10.52-5.45-12.51-12.09-1.13-3.77-3.77-13.37-5.84-21a73.81,73.81,0,0,1-2.53-23.61,13,13,0,0,1,.52-3.71l15.81-31.1c3.88-8.36,7-17.62,11.73-25.26l.06-.1,9.63-19.67c.83-3.75,9.73-6.31,12.87-7.5,11.38-4.32,16.93-13.93,17.74-25.91,1.66-24.56,10.23-45.69,25.87-64.08,8-9.42,13.24-20.49,12.26-33.65-.71-9.55-5.17-16.63-13.77-20.44-1.75-.78-2-1.55-1-3.11,6.91-11.13,11.64-23.35,15.62-35.82,2.13-6.66.15-14.62,3.53-20.75,4.65-8.46,5.4-17.56,6.51-26.72s-1-18.49,1-27.64c.12-.56.23-1.12.34-1.68a1.39,1.39,0,0,0,0-.27V177.77a1.59,1.59,0,0,0,0-.16c-.94-9.35-4-18.05-6.82-26.94-4.5-14.43-12.72-25.76-24.86-33.38-33.55-21.08-69-36.66-109-38.66a20.26,20.26,0,0,1-3.75-.6,1.16,1.16,0,0,0-.27,0h-8.67c-10,1.25-20,2.23-30,3.8C258.06,86,231.5,90,205.68,98c-3.42,1.06-7.25.67-10.65,1.76-10.87,3.48-19.26,11.37-24.86,20.87-6.6,11.2-12.48,23.22-15.07,36.48a77.13,77.13,0,0,0,.26,30c.28,1.44.77,3.21,1.76,4.05,3.75,3.19,2.76,6.95,1.93,11-1.51,7.35-2.43,15.19.86,21.87,2.75,5.58,2.34,10.46,1.59,16.07-1.2,8.92,1.09,17.22,5.71,24.79.88,1.44,1.27,4.31-.64,5.09C155.13,274.59,151,282.78,148.44,294c-4.82,19-1.29,33.7,1.59,41.34a33.34,33.34,0,0,0,4.35,7.74c4,5.46,3.15,13.43,1.49,23-2,11.62-1.26,19.69,5.9,29.27,6.29,6.11,14.1,8.52,19.84,1.31,1-1.21,1.8-2.52,2.71-3.77l1-1.35a1.27,1.27,0,0,1,2.25.44,13.38,13.38,0,0,1,.4,1.79S204.25,463,214.1,496.88a1.51,1.51,0,0,0,.08.2c7.17,15.82,9.59,22.28,12.15,32.51C232,552.35,219.16,585.7,219.16,585.7Zm23.84-105a115.16,115.16,0,0,0,40.63,14.19c4.68.74,23.67.91,23.5,1.09-.78.83-2,2.53-1.68,3.76.38,1.51.86,3.67-3.52,4.58-11.77,2.47-24.18,3.1-43.85-8.91-12.31-8-16.3-13.82-15.85-14.66C242.46,480.36,243,480.72,243,480.72Zm73.07-41.47a8.7,8.7,0,0,0-7.7-3,21.32,21.32,0,0,0-6.59,1.41c-5.56,2.55-4,3.92-10.55,4.1a17.59,17.59,0,0,1-2-.06h-.05c-3.65-.49-6.64-4.79-12.5-7.48-2.12-1-4.11-1.85-6.59-1.41-3.2.56-8.49,3.74-6.85,6.39,13.61,13.93,27.16,13.34,29.53,13.36.2,0,6.34.18,6.31.37-.3,1.71-.57.5-3.94,4.61-1.85,2.26-1.14,4.93-.1,6.87a5.36,5.36,0,0,1,.5,4.72c-1,2.08-.54,2.32-2.62,6.39-1.42,2.8-3,6-8.21,5.86-1.25,0-2.51,0-3.76.07-3.24.2-13.32-.51-43.76-8.39-.74-.19-1.2.21-1.05,1,4.33,23.06,40.25,38.16,43.29,38.61.91.26,1.21,2.22,0,2.56-7.3,2-2.9,11.48,0,14.06,4,3.55,6.68,5.33,10.82,8.69a17.11,17.11,0,0,1,4,4.6c6.6,11.21,1.18,20.75-4.12,23.37-2.26,1.34-9.77.31-9.77.31-13-1.25-42.23-22.47-46.39-41,0,0-10-33.28-7.12-48.91,2.13-11.65,4-25.34,1.45-35.53-2-8.14-7-14.38-11.09-19.33-.21-.25-.4-.5-.59-.77-1.16-1.61-5.83-8.08-9.38-13.64a28.46,28.46,0,0,1-4.45-15.57c.13-13.63,4.11-12.93,2.69-14.11-1.65-1.37-6.69,1-6.69,1h0a48.44,48.44,0,0,0-9.18,3.62h0a8.79,8.79,0,0,1-3.87,1,4,4,0,0,0-3.15,2.05s-4.5,10.16-12.78,6.23a11.47,11.47,0,0,1-3.92-3.76c-2.82-5.33-2.61-11.66-1.58-25.37.6-8.11.92-11.08-.51-15.22s-3.37-6.16-4.83-8.13c-10-13.61-6.13-34.21-5.75-36.13,0,0,2.62-13,11.07-19.33,1.19-.89,2-1.12,2.69-.93,1.92.5,4,4.54,5.28,7.94a19.82,19.82,0,0,0,4,6.55c10.68,11.8,7.54,16.39,13,22.51a27,27,0,0,1,3.13,4.34q.28.48.59.93a16.81,16.81,0,0,1,2.23,5.51c1.67,6.12-.78,7.64,1,11.46,2.32,5.1,8.43,6.28,9.38,5.89a1.55,1.55,0,0,0,.65-.5,1.88,1.88,0,0,0,.21-1.32c-1-6.94.18-14.06,0-21.08,0-.39,0-.79,0-1.18.26-5.12,2.34-40.29,11.21-48.56a.92.92,0,0,0,.14-.16c.13-.19.45-.66.81-1.12,5.29-7,40.4-29.54,56.63-21.13.5.26,3.47,1.84,7.16,4.24a109.85,109.85,0,0,1,9.31,6.84c3.14,2.65,18.76,15.79,19.36,33.77.29,8.63-3,16.27-5.52,22.3-2.31,5.44-5.59,11.19-7.67,20.87-.61,2.83-.94,5.18-1.05,6.16-2.61,22.17,19,35.18,14.14,53.89-2.33,10.61,3.46,15.46,5.74,19,.51.78,1.08,1.52,1.66,2.25,3.66,4.63,4.7,12.28,3.5,15.57-.7,1.92-2.44,3.39-3.76,3.22a2.58,2.58,0,0,1-1.88-1.28m0,0M334,549.49l1.32-1.05A8.55,8.55,0,0,1,335,550,396.78,396.78,0,0,0,315.53,612c-1.43,6.5-.63,13.53-.77,20.32,0,1.48-.39,2.25-1.87,2.46l-.21.05a25.22,25.22,0,0,0-2.41,1.23c-9.07,5-19.83,12.64-19.83,12.64-8.71,6.18-22.23,6.7-31.4,4.29-22.25-5.84-33.7-32.78-36.18-50.3-.16-1.16-.27-2.13-.33-2.81a1.51,1.51,0,0,1,0-.41,5.28,5.28,0,0,1,.53-1.93c9.66-15.31,12.18-32.88,14.82-50.43a1.49,1.49,0,0,1,.47-.85c.1-.09.55.1.7.28,8.23,9.23,16.67,15.3,24.45,20.61A33.58,33.58,0,0,0,274.13,572a52.17,52.17,0,0,0,18,1.37,34.89,34.89,0,0,0,12-3.23C320.65,562.26,334,549.49,334,549.49Z" transform="translate(-146.06 -78)"/><path class="cls-3" d="M224.16,585.7c-.32.57-.62,1.06-.8,1.35a1.14,1.14,0,0,1-.46.41c-9.93,4.88-13.25,12.61-10,23.8,2.94,10.16,17.05,28.47,24,35.86,9.71,10.32,12.11,12.5,24.51,19.45,14.12,7.9,32.5,8.33,49.15,6.6s42.21-15.11,47.66-19.45,12-7.2,18-10.77a187.28,187.28,0,0,0,23-15.57c4.32-3.53,7.44-7.94,7.85-13.87.59-8.36-4-13.37-13.53-15.53-6.22-1.41-12.67-2.3-18.49-5-2.42-1.12-10.52-5.45-12.51-12.09-1.13-3.77-3.77-13.37-5.84-21a73.81,73.81,0,0,1-2.53-23.61,13,13,0,0,1,.52-3.71l15.81-31.1c3.88-8.36,7-17.62,11.73-25.26l.06-.1,9.63-19.67c.83-3.75,9.73-6.31,12.87-7.5,11.38-4.32,16.93-13.93,17.74-25.91,1.66-24.56,10.23-45.69,25.87-64.08,8-9.42,13.24-20.49,12.26-33.65-.71-9.55-5.17-16.63-13.77-20.44-1.75-.78-2-1.55-1-3.11,6.91-11.13,11.64-23.35,15.62-35.82,2.13-6.66.15-14.62,3.53-20.75,4.65-8.46,5.4-17.56,6.51-26.72s-1-18.49,1-27.64c.12-.56.23-1.12.34-1.68a1.39,1.39,0,0,0,0-.27V177.77a1.59,1.59,0,0,0,0-.16c-.94-9.35-4-18.05-6.82-26.94-4.5-14.43-12.72-25.76-24.86-33.38-33.55-21.08-69-36.66-109-38.66a20.26,20.26,0,0,1-3.75-.6,1.16,1.16,0,0,0-.27,0h-8.67c-10,1.25-20,2.23-30,3.8C263.06,86,236.5,90,210.68,98c-3.42,1.06-7.25.67-10.65,1.76-10.87,3.48-19.26,11.37-24.86,20.87-6.6,11.2-12.48,23.22-15.07,36.48a77.13,77.13,0,0,0,.26,30c.28,1.44.77,3.21,1.76,4.05,3.75,3.19,2.76,6.95,1.93,11-1.51,7.35-2.43,15.19.86,21.87,2.75,5.58,2.34,10.46,1.59,16.07-1.2,8.92,1.09,17.22,5.71,24.79.88,1.44,1.27,4.31-.64,5.09C160.13,274.59,156,282.78,153.44,294c-4.82,19-1.29,33.7,1.59,41.34a33.34,33.34,0,0,0,4.35,7.74c4,5.46,3.15,13.43,1.49,23-2,11.62-1.26,19.69,5.9,29.27,6.29,6.11,14.1,8.52,19.84,1.31,1-1.21,1.8-2.52,2.71-3.77l1-1.35a1.27,1.27,0,0,1,2.25.44,13.38,13.38,0,0,1,.4,1.79S209.25,463,219.1,496.88a1.51,1.51,0,0,0,.08.2c7.17,15.82,9.59,22.28,12.15,32.51C237,552.35,224.16,585.7,224.16,585.7Zm23.84-105a115.16,115.16,0,0,0,40.63,14.19c4.68.74,23.67.91,23.5,1.09-.78.83-2,2.53-1.68,3.76.38,1.51.86,3.67-3.52,4.58-11.77,2.47-24.18,3.1-43.85-8.91-12.31-8-16.3-13.82-15.85-14.66C247.46,480.36,248,480.72,248,480.72Zm73.07-41.47a8.7,8.7,0,0,0-7.7-3,21.32,21.32,0,0,0-6.59,1.41c-5.56,2.55-4,3.92-10.55,4.1a17.59,17.59,0,0,1-2-.06h-.05c-3.65-.49-6.64-4.79-12.5-7.48-2.12-1-4.11-1.85-6.59-1.41-3.2.56-8.49,3.74-6.85,6.39,13.61,13.93,27.16,13.34,29.53,13.36.2,0,6.34.18,6.31.37-.3,1.71-.57.5-3.94,4.61-1.85,2.26-1.14,4.93-.1,6.87a5.36,5.36,0,0,1,.5,4.72c-1,2.08-.54,2.32-2.62,6.39-1.42,2.8-3,6-8.21,5.86-1.25,0-2.51,0-3.76.07-3.24.2-13.32-.51-43.76-8.39-.74-.19-1.2.21-1.05,1,4.33,23.06,40.25,38.16,43.29,38.61.91.26,1.21,2.22,0,2.56-7.3,2-2.9,11.48,0,14.06,4,3.55,6.68,5.33,10.82,8.69a17.11,17.11,0,0,1,4,4.6c6.6,11.21,1.18,20.75-4.12,23.37-2.26,1.34-9.77.31-9.77.31-13-1.25-42.23-22.47-46.39-41,0,0-10-33.28-7.12-48.91,2.13-11.65,4-25.34,1.45-35.53-2-8.14-7-14.38-11.09-19.33-.21-.25-.4-.5-.59-.77-1.16-1.61-5.83-8.08-9.38-13.64a28.46,28.46,0,0,1-4.45-15.57c.13-13.63,4.11-12.93,2.69-14.11-1.65-1.37-6.69,1-6.69,1h0a48.44,48.44,0,0,0-9.18,3.62h0a8.79,8.79,0,0,1-3.87,1,4,4,0,0,0-3.15,2.05s-4.5,10.16-12.78,6.23a11.47,11.47,0,0,1-3.92-3.76c-2.82-5.33-2.61-11.66-1.58-25.37.6-8.11.92-11.08-.51-15.22s-3.37-6.16-4.83-8.13c-10-13.61-6.13-34.21-5.75-36.13,0,0,2.62-13,11.07-19.33,1.19-.89,2-1.12,2.69-.93,1.92.5,4,4.54,5.28,7.94a19.82,19.82,0,0,0,4,6.55c10.68,11.8,7.54,16.39,13,22.51a27,27,0,0,1,3.13,4.34q.28.48.59.93a16.81,16.81,0,0,1,2.23,5.51c1.67,6.12-.78,7.64,1,11.46,2.32,5.1,8.43,6.28,9.38,5.89a1.55,1.55,0,0,0,.65-.5,1.88,1.88,0,0,0,.21-1.32c-1-6.94.18-14.06,0-21.08,0-.39,0-.79,0-1.18.26-5.12,2.34-40.29,11.21-48.56a.92.92,0,0,0,.14-.16c.13-.19.45-.66.81-1.12,5.29-7,40.4-29.54,56.63-21.13.5.26,3.47,1.84,7.16,4.24a109.85,109.85,0,0,1,9.31,6.84c3.14,2.65,18.76,15.79,19.36,33.77.29,8.63-3,16.27-5.52,22.3-2.31,5.44-5.59,11.19-7.67,20.87-.61,2.83-.94,5.18-1.05,6.16-2.61,22.17,19,35.18,14.14,53.89-2.33,10.61,3.46,15.46,5.74,19,.51.78,1.08,1.52,1.66,2.25,3.66,4.63,4.7,12.28,3.5,15.57-.7,1.92-2.44,3.39-3.76,3.22a2.58,2.58,0,0,1-1.88-1.28m0,0M339,549.49l1.32-1.05A8.55,8.55,0,0,1,340,550,396.78,396.78,0,0,0,320.53,612c-1.43,6.5-.63,13.53-.77,20.32,0,1.48-.39,2.25-1.87,2.46l-.21.05a25.22,25.22,0,0,0-2.41,1.23c-9.07,5-19.83,12.64-19.83,12.64-8.71,6.18-22.23,6.7-31.4,4.29-22.25-5.84-33.7-32.78-36.18-50.3-.16-1.16-.27-2.13-.33-2.81a1.51,1.51,0,0,1,0-.41,5.28,5.28,0,0,1,.53-1.93c9.66-15.31,12.18-32.88,14.82-50.43a1.49,1.49,0,0,1,.47-.85c.1-.09.55.1.7.28,8.23,9.23,16.67,15.3,24.45,20.61A33.58,33.58,0,0,0,279.13,572a52.17,52.17,0,0,0,18,1.37,34.89,34.89,0,0,0,12-3.23C325.65,562.26,339,549.49,339,549.49Z" transform="translate(-146.06 -78)"/></svg>